<?xml version="1.0" standalone="no"?>
<!DOCTYPE svg PUBLIC "-//W3C//DTD SVG 20010904//EN"
 "http://www.w3.org/TR/2001/REC-SVG-20010904/DTD/svg10.dtd">
<svg version="1.0" xmlns="http://www.w3.org/2000/svg"
 width="260.000000pt" height="260.000000pt" viewBox="0 0 260.000000 260.000000"
 preserveAspectRatio="xMidYMid meet">
<metadata>
Created by potrace 1.14, written by Peter Selinger 2001-2017
</metadata>
<g transform="translate(0.000000,260.000000) scale(0.100000,-0.100000)"
fill="#000000" stroke="none">
<path d="M0 1300 l0 -1300 1300 0 1300 0 0 1300 0 1300 -1300 0 -1300 0 0
-1300z m1214 975 c-10 -8 -23 -14 -29 -14 -5 0 -1 6 9 14 11 8 24 15 30 15 5
0 1 -7 -10 -15z m151 5 c-3 -5 -1 -10 4 -10 6 0 11 -8 11 -17 0 -15 -2 -14
-15 3 -17 23 -19 34 -4 34 5 0 7 -4 4 -10z m-78 -6 c-3 -3 -12 -4 -19 -1 -8 3
-5 6 6 6 11 1 17 -2 13 -5z m43 -18 c8 -11 10 -17 3 -13 -7 4 -13 0 -16 -10
-2 -10 -4 -3 -4 15 0 18 1 31 1 30 1 -2 8 -12 16 -22z m-58 -28 c2 -17 10 -33
18 -36 12 -4 13 -2 3 9 -19 19 -16 31 5 20 13 -7 22 -7 29 0 12 12 57 -43 45
-56 -4 -5 -2 -5 5 -1 13 7 6 36 -10 47 -5 4 -5 9 2 13 6 4 11 2 11 -4 0 -7 7
-10 15 -6 9 3 15 0 15 -10 0 -8 -4 -12 -10 -9 -13 8 -13 -1 1 -27 7 -12 7 -18
1 -14 -6 3 -12 1 -14 -6 -6 -16 52 -98 69 -98 7 0 13 -5 13 -11 0 -5 -4 -7
-10 -4 -5 3 -10 1 -10 -4 0 -19 80 -92 92 -85 7 4 8 3 4 -5 -4 -6 -12 -9 -17
-5 -6 3 0 -10 13 -29 12 -20 25 -35 28 -35 19 1 23 -4 10 -12 -13 -9 -13 -12
2 -24 10 -7 15 -16 11 -19 -3 -4 -1 -7 6 -7 7 0 9 -4 6 -10 -3 -5 5 -32 18
-59 13 -28 19 -47 13 -44 -10 6 5 -14 47 -61 9 -11 16 -25 14 -31 -2 -5 5 -23
17 -40 11 -16 20 -31 18 -32 -7 -8 0 -23 8 -18 6 3 10 1 10 -4 0 -6 -5 -11
-11 -11 -15 0 -1 -42 22 -62 11 -9 15 -19 10 -22 -13 -8 -1 -48 18 -63 9 -6
20 -9 25 -6 5 4 6 1 1 -6 -5 -9 -10 -10 -18 -2 -16 16 -27 13 -21 -4 4 -8 12
-15 20 -15 8 0 14 -5 14 -11 0 -5 -5 -7 -12 -3 -7 5 -8 3 -3 -5 4 -7 17 -10
29 -7 19 5 19 4 4 -8 -16 -12 -16 -15 -2 -32 9 -10 13 -14 10 -7 -4 6 -1 15 5
19 8 4 9 3 5 -4 -4 -7 -1 -12 6 -12 8 0 6 -5 -5 -11 -9 -6 -14 -15 -11 -21 7
-11 15 -67 15 -100 0 -13 7 -16 29 -13 21 2 27 0 24 -10 -3 -7 -14 -12 -25
-10 -22 4 -22 4 -9 -29 5 -14 14 -26 20 -26 13 0 13 27 0 33 -6 3 -5 4 2 3 7
-2 13 -14 13 -27 0 -15 -5 -23 -13 -21 -8 1 -11 -2 -7 -8 4 -6 13 -9 21 -6 8
3 14 1 14 -5 0 -5 11 -2 24 8 13 10 21 24 19 30 -6 16 -33 17 -33 2 0 -5 5 -7
12 -3 7 4 8 3 4 -4 -14 -23 -26 -12 -23 22 1 22 6 32 15 29 6 -3 12 -9 12 -15
0 -5 4 -7 9 -4 5 3 11 -7 14 -22 3 -15 0 -30 -6 -34 -7 -4 -7 -8 -2 -8 6 -1 0
-5 -13 -10 -12 -5 -30 -6 -40 -3 -15 6 -15 5 -3 -10 11 -14 16 -15 29 -5 13
11 15 9 10 -14 -4 -23 -2 -27 15 -25 12 1 25 -6 31 -19 6 -11 16 -19 21 -17
13 4 36 -45 24 -53 -5 -3 -9 0 -9 7 0 21 -32 38 -51 26 -16 -10 -16 -12 -1
-25 9 -7 11 -10 3 -7 -9 5 -8 -1 4 -19 9 -14 21 -24 25 -21 5 3 11 1 15 -5 3
-5 1 -10 -5 -10 -6 0 -8 -5 -5 -10 4 -6 11 -7 17 -4 6 4 8 2 5 -3 -6 -9 16
-79 29 -92 2 -2 12 2 21 10 16 13 17 12 5 -2 -7 -9 -9 -24 -6 -33 8 -20 74
-67 85 -61 4 3 5 -3 2 -14 -3 -10 1 -22 8 -26 8 -6 10 -4 4 5 -5 8 -4 11 2 7
5 -3 10 -25 11 -47 1 -23 5 -47 9 -52 3 -6 2 -9 -3 -5 -5 3 -22 -12 -38 -34
-17 -21 -35 -39 -40 -39 -6 0 -4 5 4 10 11 7 8 10 -16 10 -16 0 -39 6 -49 14
-11 8 -24 13 -30 12 -5 -2 -6 -1 -2 2 9 5 -11 32 -25 32 -13 0 -38 26 -38 40
0 6 -5 8 -12 4 -7 -4 -8 -3 -4 5 4 6 12 9 17 6 5 -4 9 -2 9 3 0 12 -43 51 -54
49 -5 -1 -12 5 -17 13 -4 8 -19 38 -32 65 -15 29 -31 49 -40 49 -9 -1 -13 4
-11 11 3 7 0 16 -5 20 -6 3 -9 10 -6 15 11 18 -19 22 -32 5 -7 -11 -13 -14
-13 -8 0 6 7 16 15 23 25 21 17 34 -10 16 -14 -9 -25 -12 -25 -6 0 5 5 10 10
10 6 0 10 7 10 16 0 9 -5 14 -11 12 -6 -2 -9 -6 -8 -8 1 -3 -3 -15 -9 -27 -11
-20 -47 -26 -47 -7 0 5 -4 15 -9 22 -7 11 -4 12 13 3 17 -9 21 -9 21 3 0 15
-27 30 -49 27 -8 -1 -10 2 -6 9 5 9 1 10 -16 5 -21 -7 -22 -6 -7 9 14 13 21
14 42 5 14 -7 23 -16 19 -22 -3 -6 -1 -7 6 -3 6 4 9 13 5 19 -3 7 0 5 8 -4 13
-16 51 -23 42 -7 -3 5 -10 5 -16 2 -6 -4 -8 1 -4 14 7 21 6 22 -44 10 -8 -1
-14 3 -12 10 1 8 -2 11 -7 8 -5 -3 -11 1 -14 8 -4 11 -18 13 -54 10 -26 -3
-60 -6 -75 -6 -16 -1 -28 -5 -28 -10 0 -5 5 -6 10 -3 6 3 10 4 10 1 0 -14 -20
-14 -34 0 -15 14 -17 13 -26 -8 -9 -20 -10 -20 -7 -2 4 18 -1 21 -30 22 -18 1
-31 -3 -28 -8 3 -5 1 -11 -5 -15 -5 -3 -10 1 -10 9 0 23 -88 22 -105 -1 -9
-13 -14 -13 -20 -3 -5 9 -4 11 3 6 7 -4 12 -3 12 3 0 14 -73 7 -78 -7 -2 -7
-8 -12 -13 -12 -6 0 -8 4 -5 9 3 5 -1 11 -9 15 -8 3 -17 0 -21 -5 -4 -7 -10
-7 -17 0 -14 14 -50 15 -42 1 3 -5 2 -10 -4 -10 -5 0 -13 5 -17 11 -4 7 -9 8
-17 0 -6 -6 -16 -7 -28 -1 -25 14 -62 6 -65 -13 -1 -10 2 -17 7 -17 6 0 7 -4
4 -10 -8 -12 -55 -9 -55 4 0 5 7 18 17 28 15 17 15 18 -5 18 -12 0 -22 -5 -22
-11 0 -8 -5 -7 -15 1 -11 9 -19 10 -26 3 -7 -7 -22 -8 -40 -3 -17 5 -31 5 -35
-1 -3 -5 -2 -9 3 -8 19 3 34 -2 29 -10 -3 -5 -15 -7 -25 -4 -14 4 -25 -6 -44
-39 -119 -211 -156 -270 -229 -373 -27 -36 -48 -70 -48 -76 0 -5 -13 -24 -30
-42 -41 -46 -90 -49 -130 -8 -34 33 -38 64 -16 116 16 36 10 50 -14 34 -10 -6
-11 -9 -2 -9 6 0 12 -4 12 -10 0 -18 -19 -11 -31 11 -8 15 -8 19 0 15 7 -5 11
1 11 15 0 12 3 19 7 16 3 -4 12 -2 19 4 10 8 12 6 9 -10 -5 -26 7 -27 27 -3
21 23 42 66 30 58 -9 -5 -9 1 -3 33 1 2 8 -2 16 -9 12 -10 13 -6 9 27 -4 27
-3 34 5 23 5 -8 7 -18 5 -22 -3 -4 -1 -8 5 -8 6 0 18 12 27 28 10 15 33 51 52
80 36 52 39 78 7 45 -17 -16 -17 -16 -11 5 5 16 3 21 -6 19 -7 -2 -9 -2 -5 1
4 2 1 16 -8 30 -13 22 -11 21 12 -5 22 -25 32 -30 45 -23 21 13 50 69 41 83
-3 6 -1 7 5 3 8 -5 12 1 12 16 0 18 -2 20 -10 8 -8 -12 -10 -12 -10 -1 0 11
-3 11 -15 1 -9 -7 -14 -19 -11 -27 3 -7 1 -13 -4 -13 -16 0 -11 26 8 42 9 9
27 14 40 12 14 -3 21 0 17 6 -4 6 4 19 16 29 20 16 22 22 12 42 -7 13 -12 18
-12 11 -1 -10 -4 -10 -16 2 -18 18 -20 32 -3 19 7 -6 21 -9 31 -8 9 2 15 -1
12 -5 -3 -5 -2 -11 3 -14 4 -2 9 12 10 32 2 20 8 40 15 44 8 5 6 8 -5 8 -10 0
-18 -6 -18 -12 0 -10 -3 -9 -9 1 -7 11 -11 10 -20 -5 -6 -11 -11 -14 -11 -7 0
6 10 19 22 27 25 18 8 21 -25 5 -21 -10 -21 -10 -3 5 11 9 27 16 35 16 12 1
10 6 -8 20 -13 11 -19 20 -13 20 5 0 15 -6 21 -14 7 -8 21 -12 33 -8 14 3 19
1 14 -6 -4 -7 -3 -12 3 -12 26 0 18 21 -10 27 -28 5 -30 7 -14 13 11 4 26 3
33 -3 9 -7 11 -6 7 6 -4 8 -2 18 3 21 6 3 8 15 5 26 -3 11 -1 20 4 20 5 0 10
7 10 15 0 11 -4 12 -14 4 -7 -6 -13 -9 -13 -5 0 3 0 9 0 14 0 4 5 8 10 8 6 1
15 2 21 3 6 0 8 8 5 17 -3 8 1 22 9 30 8 9 16 26 16 40 2 36 2 34 37 107 29
58 32 70 20 84 -7 9 -8 14 -2 10 7 -4 19 4 28 18 9 14 13 25 9 25 -5 0 0 5 10
11 9 6 15 14 12 18 -2 5 2 14 10 21 8 7 15 17 15 23 0 5 20 43 44 84 25 40 48
84 51 96 12 42 73 166 136 280 21 37 34 67 31 67 -4 1 3 9 15 19 17 14 19 20
9 24 -7 3 -20 0 -27 -6 -11 -10 -11 -9 0 5 16 21 54 7 45 -17 -4 -8 -10 -13
-14 -10 -5 3 -11 2 -14 -3 -2 -4 5 -9 16 -9 12 -1 22 6 25 18 3 10 12 19 19
19 8 0 17 7 20 15 10 25 23 17 26 -17z m189 -105 c10 -11 10 -14 2 -9 -8 4
-13 2 -13 -4 0 -6 -5 -8 -12 -4 -9 6 -9 9 0 12 7 2 10 8 6 13 -9 15 3 10 17
-8z m36 -118 c0 -8 -4 -12 -9 -9 -5 3 -6 10 -3 15 9 13 12 11 12 -6z m137
-231 c3 -8 2 -12 -4 -9 -6 3 -10 10 -10 16 0 14 7 11 14 -7z m83 -140 c-3 -3
-12 -4 -19 -1 -8 3 -5 6 6 6 11 1 17 -2 13 -5z m51 -119 c-3 -3 -9 2 -12 12
-6 14 -5 15 5 6 7 -7 10 -15 7 -18z m22 -70 c0 -3 -9 0 -20 7 -11 7 -20 18
-20 25 0 8 8 5 20 -7 11 -11 20 -22 20 -25z m20 -50 c0 -1 -6 -7 -13 -13 -10
-8 -13 -6 -13 7 0 11 6 17 13 14 7 -3 13 -6 13 -8z m-1090 -9 c0 -2 -7 -7 -16
-10 -8 -3 -12 -2 -9 4 6 10 25 14 25 6z m30 -10 c0 -2 -7 -7 -16 -10 -8 -3
-12 -2 -9 4 6 10 25 14 25 6z m1100 -6 c0 -5 -10 -10 -22 -9 -22 0 -22 1 -3 9
11 5 21 9 23 9 1 1 2 -3 2 -9z m-1146 -32 c-3 -4 2 -8 11 -8 9 0 13 -5 10 -11
-5 -7 -13 -5 -24 5 -10 9 -21 13 -26 9 -4 -5 -5 -3 -2 3 3 6 13 11 21 11 8 0
13 -4 10 -9z m1146 2 c0 -5 -2 -10 -4 -10 -3 0 -8 5 -11 10 -3 6 -1 10 4 10 6
0 11 -4 11 -10z m-1173 -35 c0 -8 -4 -12 -9 -9 -5 3 -6 10 -3 15 9 13 12 11
12 -6z m1263 -59 c-4 -4 -16 -4 -26 2 -16 9 -14 10 8 9 15 -1 23 -6 18 -11z
m-1250 -32 c0 -2 -9 0 -19 5 -14 8 -22 7 -31 -4 -7 -8 -17 -15 -22 -15 -6 0 0
9 13 19 17 14 29 17 41 10 10 -5 18 -12 18 -15z m1230 9 c-8 -3 -20 -10 -26
-14 -7 -5 -11 -3 -11 6 0 10 10 15 26 14 16 0 20 -3 11 -6z m-1292 -58 c-3 -3
-9 2 -12 12 -6 14 -5 15 5 6 7 -7 10 -15 7 -18z m34 11 c7 4 8 2 4 -5 -9 -13
-26 -5 -25 12 0 9 2 8 6 -1 2 -6 10 -9 15 -6z m1238 8 c0 -8 -19 -13 -24 -6
-3 5 1 9 9 9 8 0 15 -2 15 -3z m45 -40 c-14 -15 -14 -18 6 -35 12 -10 18 -19
12 -19 -5 0 -17 8 -26 18 -15 16 -15 20 -1 40 8 12 12 22 9 22 -3 0 -3 6 2 13
5 9 8 7 11 -5 2 -10 -4 -25 -13 -34z m-1355 22 c0 -3 -4 -8 -10 -11 -5 -3 -10
-1 -10 4 0 6 5 11 10 11 6 0 10 -2 10 -4z m1335 -6 c-3 -5 -12 -10 -18 -10 -7
0 -6 4 3 10 19 12 23 12 15 0z m-38 -22 c0 -13 -1 -17 -4 -10 -3 6 -9 10 -14
6 -5 -3 -9 -1 -9 5 0 5 6 12 13 14 6 3 12 6 12 6 1 1 1 -9 2 -21z m-1247 -96
c0 -5 -7 -9 -15 -9 -8 0 -12 4 -9 9 3 4 9 8 15 8 5 0 9 -4 9 -8z m-88 -59 c-3
-17 -1 -24 6 -19 6 3 14 2 17 -4 4 -6 3 -10 -2 -9 -22 4 -34 -2 -27 -13 5 -9
2 -9 -9 1 -9 7 -17 19 -17 25 0 6 5 4 10 -4 7 -11 10 -8 10 16 0 19 -6 34 -15
38 -10 3 -15 -1 -15 -11 0 -9 -3 -14 -6 -10 -4 3 -4 13 -1 22 5 12 11 13 30 4
19 -8 23 -17 19 -36z m1472 39 c2 -4 -4 -8 -14 -8 -10 0 -16 4 -14 8 3 4 9 8
14 8 5 0 11 -4 14 -8z m-1418 -69 c-10 -10 -19 5 -10 18 6 11 8 11 12 0 2 -7
1 -15 -2 -18z m1409 -3 c3 -5 1 -10 -4 -10 -6 0 -11 5 -11 10 0 6 2 10 4 10 3
0 8 -4 11 -10z m-1521 -18 c3 -5 -1 -9 -9 -9 -8 0 -12 4 -9 9 3 4 7 8 9 8 2 0
6 -4 9 -8z m1551 -12 c-3 -5 -12 -10 -18 -10 -7 0 -6 4 3 10 19 12 23 12 15 0z
m-430 -30 c4 -6 2 -9 -2 -8 -5 2 -21 -10 -35 -27 -15 -16 -30 -26 -34 -22 -5
4 -2 12 6 17 13 8 12 10 -2 10 -10 0 -18 5 -18 10 0 6 11 8 24 6 14 -3 30 2
37 10 14 17 16 17 24 4z m45 0 c0 -5 -8 -10 -17 -10 -15 0 -16 2 -3 10 19 12
20 12 20 0z m-329 -14 c5 3 9 -2 9 -12 0 -13 -3 -14 -15 -4 -8 7 -15 18 -14
24 0 7 2 6 6 -2 2 -6 9 -10 14 -6z m-452 -3 c-4 -22 3 -32 16 -27 8 4 15 2 15
-4 0 -13 -30 -9 -39 6 -6 11 -34 1 -32 -12 4 -31 -1 -43 -19 -41 -11 1 -23 5
-27 9 -5 4 -3 7 2 6 21 -5 32 1 32 15 0 9 -6 14 -13 11 -7 -3 -18 3 -25 12
-11 14 -11 15 0 6 14 -13 51 -7 51 8 0 5 5 6 10 3 6 -3 10 -1 10 4 0 6 5 11
10 11 6 0 9 -3 9 -7z m192 -17 c-6 -7 -7 -16 -3 -21 4 -4 -3 -2 -15 4 -26 13
-28 17 -11 27 7 4 8 3 4 -4 -4 -7 -2 -12 3 -12 6 0 11 7 11 16 0 8 5 12 10 9
8 -5 8 -11 1 -19z m150 10 c-10 -11 -9 -16 5 -24 14 -8 14 -10 1 -15 -20 -7
-31 21 -16 39 6 8 14 14 16 14 3 0 0 -6 -6 -14z m159 1 c0 -8 -7 -14 -15 -14
-16 0 -19 9 -8 20 11 11 23 8 23 -6z m-945 -7 c3 -5 1 -10 -4 -10 -6 0 -11 5
-11 10 0 6 2 10 4 10 3 0 8 -4 11 -10z m1575 -10 c6 -11 8 -20 6 -20 -3 0 -10
9 -16 20 -6 11 -8 20 -6 20 3 0 10 -9 16 -20z m-849 1 c3 0 6 -8 6 -16 0 -13
-2 -13 -17 0 -9 8 -19 12 -22 9 -3 -3 -9 -1 -12 4 -4 8 18 9 45 3z m124 0 c-3
-5 -1 -12 5 -16 13 -8 13 -25 -1 -25 -5 0 -7 5 -4 10 3 6 -1 13 -9 16 -16 6
-12 24 5 24 6 0 8 -4 4 -9z m332 2 c-9 -9 13 -34 24 -27 5 3 9 0 9 -6 0 -6 4
-9 8 -6 5 3 9 -1 9 -9 0 -8 -4 -12 -9 -9 -5 4 -16 -2 -24 -12 -9 -11 -13 -14
-10 -7 9 17 -12 65 -25 57 -8 -4 -7 -9 2 -15 8 -5 10 -9 4 -9 -5 0 -16 4 -24
9 -12 8 -12 11 0 25 8 8 20 15 28 16 8 0 11 -3 8 -7z m-1097 -19 c0 -8 -4 -12
-10 -9 -5 3 -10 10 -10 16 0 5 5 9 10 9 6 0 10 -7 10 -16z m505 6 c3 -5 1 -10
-4 -10 -6 0 -11 5 -11 10 0 6 2 10 4 10 3 0 8 -4 11 -10z m304 -4 c9 -11 9
-16 -1 -22 -7 -4 -10 -4 -6 1 4 4 3 14 -3 22 -6 7 -9 13 -6 13 2 0 10 -6 16
-14z m80 -12 c-6 -8 -15 -12 -18 -8 -3 4 0 9 7 11 6 3 9 10 6 15 -4 7 -2 8 5
4 9 -6 9 -11 0 -22z m-999 6 c0 -5 -7 -7 -15 -4 -8 4 -15 8 -15 10 0 2 7 4 15
4 8 0 15 -4 15 -10z m550 -6 c0 -2 -9 -4 -21 -4 -11 0 -18 4 -14 10 5 8 35 3
35 -6z m416 1 c-3 -8 2 -18 11 -23 11 -6 12 -11 4 -16 -6 -4 -14 0 -17 8 -3 9
-11 13 -16 10 -6 -4 -5 3 1 15 13 24 26 29 17 6z m-1006 -5 c0 -5 -5 -10 -11
-10 -5 0 -7 5 -4 10 3 6 8 10 11 10 2 0 4 -4 4 -10z m1680 0 c0 -5 -2 -10 -4
-10 -3 0 -8 5 -11 10 -3 6 -1 10 4 10 6 0 11 -4 11 -10z m-1036 -14 c-10 -8
-21 -12 -24 -10 -5 6 21 24 34 24 6 0 1 -6 -10 -14z m56 -8 c11 -22 10 -22 -4
-4 -11 13 -16 15 -16 6 0 -7 -3 -11 -6 -7 -6 5 3 27 11 27 2 0 9 -10 15 -22z
m110 -7 c0 -13 -2 -14 -9 -2 -8 12 -12 12 -24 2 -13 -10 -15 -9 -12 6 2 10 4
19 4 20 1 0 10 -1 21 -4 11 -3 20 -13 20 -22z m70 25 c0 -3 -4 -8 -10 -11 -5
-3 -10 -1 -10 4 0 6 5 11 10 11 6 0 10 -2 10 -4z m205 -25 c-6 -5 -25 10 -25
20 0 5 6 4 14 -3 8 -7 12 -15 11 -17z m122 -3 c1 -10 -3 -18 -8 -18 -6 0 -7 5
-4 10 3 6 1 10 -4 10 -6 0 -11 4 -11 8 0 17 26 8 27 -10z m43 6 c0 -8 -19 -13
-24 -6 -3 5 1 9 9 9 8 0 15 -2 15 -3z m-590 -14 c0 -5 -2 -10 -4 -10 -3 0 -8
5 -11 10 -3 6 -1 10 4 10 6 0 11 -4 11 -10z m245 -9 c-9 -8 -36 -10 -30 -2 2
4 11 8 20 8 8 0 13 -3 10 -6z m-875 -17 c0 -14 2 -15 18 -3 15 13 16 12 3 -3
-7 -10 -10 -18 -7 -18 4 0 2 -9 -4 -20 -9 -17 -8 -20 12 -20 18 0 20 -2 8 -10
-9 -5 -19 -5 -27 2 -9 8 -13 7 -13 -2 0 -8 -3 -10 -6 -7 -4 4 -2 13 4 20 7 8
9 17 5 20 -3 4 0 7 7 7 10 0 9 5 -3 18 -19 21 -22 32 -7 32 6 0 10 -7 10 -16z
m403 -4 c10 -12 9 -12 -4 -2 -9 6 -18 9 -21 6 -3 -3 -9 -1 -12 4 -9 15 22 8
37 -8z m127 12 c0 -5 -7 -9 -15 -9 -8 0 -12 4 -9 9 3 4 9 8 15 8 5 0 9 -4 9
-8z m1139 -14 c-9 -16 -14 -19 -17 -9 -2 7 2 17 9 22 20 13 21 11 8 -13z
m-403 0 c4 -7 3 -8 -4 -4 -7 4 -12 2 -12 -5 0 -7 -3 -10 -6 -6 -6 5 3 27 11
27 2 0 7 -5 11 -12z m441 -14 c-3 -3 -12 -4 -19 -1 -8 3 -5 6 6 6 11 1 17 -2
13 -5z m-27 -24 c0 -5 -5 -10 -11 -10 -5 0 -7 5 -4 10 3 6 8 10 11 10 2 0 4
-4 4 -10z m-1707 -50 c3 -11 1 -20 -4 -20 -5 0 -9 7 -9 16 0 9 -5 12 -12 8 -7
-4 -8 -3 -4 4 11 18 23 14 29 -8z m1807 6 c-7 -7 -13 -7 -20 0 -6 6 -3 10 10
10 13 0 16 -4 10 -10z m-1832 -43 c1 -23 0 -25 -9 -13 -9 12 -10 11 -6 -5 3
-16 -1 -21 -17 -23 -11 0 -16 2 -11 6 6 4 16 19 22 35 7 15 14 27 16 27 1 0 4
-12 5 -27z m-35 2 c-3 -9 -8 -14 -10 -11 -3 3 -2 9 2 15 9 16 15 13 8 -4z
m-33 -45 c-13 -9 -13 -10 0 -11 8 -1 18 -1 21 -1 3 1 6 -5 6 -11 0 -14 -46
-53 -48 -40 -8 73 -8 73 14 73 18 0 19 -2 7 -10z m-36 -25 c-4 -8 -8 -15 -10
-15 -2 0 -4 7 -4 15 0 8 4 15 10 15 5 0 7 -7 4 -15z m109 -8 c4 3 7 4 7 0 0
-18 -21 -14 -30 5 -10 21 -10 21 3 6 8 -10 17 -15 20 -11z m-135 -18 c-3 -8
-7 -3 -11 10 -4 17 -3 21 5 13 5 -5 8 -16 6 -23z m2037 -1 c5 4 5 1 1 -6 -6
-10 -11 -10 -22 -1 -8 6 -14 14 -14 16 0 3 6 0 13 -6 8 -6 18 -7 22 -3z
m-2054 -35 c2 1 3 0 1 -2 -1 -3 -13 -5 -26 -6 -15 0 -22 4 -19 12 4 9 10 10
23 3 9 -5 19 -8 21 -7z m2034 -3 c-3 -5 2 -13 12 -18 16 -9 28 -42 15 -41 -22
3 -31 -3 -26 -18 5 -17 5 -17 -6 0 -12 19 -30 23 -30 6 0 -5 5 -7 10 -4 6 4
10 -5 9 -22 -1 -17 -3 -21 -6 -10 -2 9 -9 15 -14 12 -5 -4 -9 3 -9 14 0 28 3
37 13 33 4 -1 14 3 21 10 11 11 11 17 -2 36 -13 20 -13 22 2 16 9 -3 14 -10
11 -14z m30 0 c3 -5 1 -10 -4 -10 -6 0 -11 5 -11 10 0 6 2 10 4 10 3 0 8 -4
11 -10z m-2018 -41 c-1 -19 -17 -28 -17 -9 0 6 -5 10 -11 10 -6 0 -8 -7 -4
-17 5 -14 3 -15 -5 -7 -9 9 -9 17 -1 33 13 24 40 18 38 -10z m28 -9 c3 -5 1
-10 -5 -10 -8 0 -8 -6 0 -21 6 -11 9 -25 6 -32 -2 -7 -5 -4 -5 6 -1 9 -5 17
-11 17 -5 0 -9 11 -8 25 2 26 12 32 23 15z m2065 -26 c0 -8 -19 -13 -24 -6 -3
5 1 9 9 9 8 0 15 -2 15 -3z m-2105 -25 c-4 -5 -1 -9 4 -9 16 0 13 -17 -3 -23
-10 -4 -13 3 -12 23 0 16 4 26 9 23 4 -2 5 -9 2 -14z m1875 -10 c0 -6 4 -8 8
-5 4 2 13 -4 20 -14 9 -14 8 -19 -4 -24 -8 -3 -13 -10 -9 -15 3 -6 12 -8 19
-5 18 7 30 -12 15 -22 -8 -4 -9 -3 -5 4 4 7 2 12 -3 12 -6 0 -11 -6 -11 -12 0
-9 -3 -9 -8 -3 -8 12 -22 13 -39 2 -7 -5 -13 -6 -13 -3 0 2 -3 13 -7 23 -6 15
-4 16 9 5 12 -10 18 -9 28 3 10 12 9 15 -6 16 -11 1 -23 1 -28 0 -5 -1 -1 10
9 25 14 21 14 26 3 22 -8 -4 -15 0 -15 7 0 10 5 11 19 4 10 -5 18 -14 18 -20z
m175 -1 c5 4 5 1 1 -6 -6 -10 -11 -10 -22 -1 -8 6 -14 17 -14 23 0 6 7 3 14
-6 7 -10 17 -14 21 -10z m-96 -25 c-7 -7 -14 -11 -18 -8 -3 3 1 10 9 15 10 7
11 10 3 10 -7 0 -13 5 -13 11 0 8 5 8 15 -1 12 -10 13 -16 4 -27z m63 -3 c-2
-8 4 -11 19 -7 12 3 28 0 36 -9 13 -12 12 -14 -1 -14 -9 0 -16 4 -16 10 0 5
-7 7 -16 3 -11 -4 -12 -9 -5 -16 14 -14 14 -27 1 -27 -5 0 -9 3 -8 8 3 15 -25
61 -35 55 -6 -3 -7 -1 -3 6 10 15 32 8 28 -9z m83 10 c-3 -5 -12 -10 -18 -10
-7 0 -6 4 3 10 19 12 23 12 15 0z m-2065 -18 c0 -13 -12 -22 -22 -16 -10 6 -1
24 13 24 5 0 9 -4 9 -8z m1933 -17 c-3 -9 -8 -14 -10 -11 -3 3 -2 9 2 15 9 16
15 13 8 -4z m133 -28 c4 -4 -2 -7 -14 -7 -12 0 -22 4 -22 9 0 10 26 9 36 -2z
m-93 -17 c3 -11 1 -20 -4 -20 -5 0 -9 9 -9 20 0 11 2 20 4 20 2 0 6 -9 9 -20z
m61 -12 c-3 -4 -11 -5 -19 -1 -21 7 -19 12 4 10 11 0 18 -5 15 -9z m-13 -22
c12 6 12 5 1 -8 -8 -10 -20 -14 -29 -11 -10 4 -14 2 -10 -4 5 -7 -1 -9 -15 -5
-16 4 -18 7 -8 10 8 3 19 12 24 20 6 11 10 12 16 2 5 -8 13 -9 21 -4z m-125
-38 c3 -4 -1 -5 -10 -4 -8 1 -18 5 -22 8 -3 4 1 5 10 4 8 -1 18 -5 22 -8z"/>
<path d="M1262 1968 c1 -16 6 -28 10 -28 11 0 10 22 -2 40 -8 11 -9 9 -8 -12z"/>
<path d="M1240 1971 c0 -6 4 -13 10 -16 6 -3 7 1 4 9 -7 18 -14 21 -14 7z"/>
<path d="M1220 1944 c0 -4 8 -13 18 -21 15 -13 15 -14 0 -10 -14 5 -15 1 -6
-31 6 -20 14 -42 20 -49 6 -7 5 -14 -3 -19 -8 -5 -9 -3 -4 6 6 9 1 10 -16 5
-19 -5 -21 -4 -9 4 10 7 11 11 3 11 -9 0 -11 10 -6 30 3 19 1 30 -5 30 -6 0
-9 -7 -6 -15 4 -8 1 -15 -6 -15 -6 0 -9 -4 -6 -9 3 -5 -1 -12 -10 -15 -8 -3
-12 -10 -9 -16 4 -6 11 -8 16 -5 15 10 10 -2 -8 -16 -15 -12 -16 -12 -8 1 6
12 5 13 -5 3 -8 -7 -14 -31 -14 -54 0 -23 -2 -36 -4 -30 -3 9 -7 9 -18 0 -12
-10 -12 -14 3 -25 17 -13 16 -14 -7 -11 -18 1 -24 -2 -22 -14 1 -9 -5 -20 -14
-23 -16 -6 -15 -8 2 -21 16 -13 16 -14 2 -9 -13 5 -18 1 -18 -14 0 -12 -4 -23
-9 -26 -5 -4 -7 4 -5 16 4 16 1 14 -9 -7 -11 -24 -12 -33 -2 -45 8 -10 9 -24
4 -40 -8 -25 -9 -24 -5 3 2 15 0 30 -5 32 -12 8 -58 -65 -52 -83 5 -11 2 -13
-8 -8 -8 4 -3 -2 11 -14 16 -13 19 -20 10 -19 -27 3 -43 -1 -37 -8 4 -3 -1
-15 -10 -25 -15 -17 -15 -20 -3 -28 8 -6 10 -10 5 -10 -6 0 -11 -9 -11 -20 0
-13 5 -19 13 -16 7 3 13 -1 13 -9 0 -8 -5 -15 -11 -15 -5 0 -7 -6 -3 -12 5
-10 4 -10 -6 -1 -7 6 -12 23 -12 37 0 15 -5 29 -11 33 -7 4 -8 -7 -4 -31 3
-20 2 -34 -2 -32 -4 3 -15 -19 -23 -49 -8 -30 -11 -55 -7 -55 5 0 9 7 9 16 0
8 5 12 11 9 7 -5 3 -16 -12 -31 -18 -20 -20 -26 -9 -39 11 -13 10 -14 -5 -9
-14 6 -16 3 -10 -16 5 -15 4 -20 -4 -16 -6 4 -11 2 -11 -3 0 -6 16 -11 36 -11
25 0 33 4 28 13 -6 9 -4 9 7 -1 14 -13 508 -18 653 -5 l78 6 -6 31 c-3 17 -8
42 -10 55 -2 13 -8 26 -13 30 -5 3 -12 14 -16 24 -4 10 -11 16 -16 13 -5 -3
-7 4 -3 16 3 13 1 19 -5 15 -6 -4 -14 1 -17 10 -4 9 -2 20 5 23 7 5 4 13 -11
23 -12 8 -22 21 -24 28 -1 8 -6 21 -11 29 -8 13 -7 13 9 0 17 -13 18 -12 14 5
-2 12 -11 19 -22 18 -9 0 -15 1 -12 4 3 3 -2 19 -10 34 -9 19 -12 35 -6 45 8
15 10 15 15 0 4 -10 3 -15 -3 -11 -6 3 -10 1 -10 -4 0 -6 7 -11 15 -11 18 0
18 2 4 34 -7 14 -17 22 -25 19 -8 -3 -14 -1 -14 5 0 6 5 12 11 14 8 3 6 10 -5
21 -10 9 -22 15 -27 12 -5 -4 -9 -2 -9 4 0 5 6 11 13 14 8 3 6 7 -7 12 -11 5
-22 3 -28 -6 -8 -11 -9 -10 -4 4 3 10 6 21 6 23 0 3 5 2 10 -1 6 -3 10 -2 10
4 0 5 -5 13 -10 16 -6 4 -8 10 -5 15 3 4 -5 10 -16 13 -17 5 -20 11 -15 31 4
16 2 26 -4 26 -6 0 -10 6 -9 13 4 30 -3 46 -28 72 -16 16 -21 25 -13 20 8 -4
-1 9 -20 31 -43 47 -62 63 -74 64 -6 0 -1 -7 10 -16 17 -14 17 -15 1 -10 -10
3 -21 6 -23 6 -2 0 -4 6 -4 14 0 8 -7 17 -16 20 -20 8 -24 8 -24 0z m104 -63
c4 -5 -3 -7 -14 -4 -23 6 -26 13 -6 13 8 0 17 -4 20 -9z m-18 -37 c-21 -20
-28 -17 -16 6 6 11 15 18 21 15 5 -4 3 -12 -5 -21z m35 -17 c-8 -8 -14 -8 -23
2 -11 10 -10 11 5 6 12 -5 17 -2 18 11 0 12 2 14 6 6 3 -8 0 -19 -6 -25z m40
-44 c13 -16 12 -17 -3 -4 -10 7 -18 15 -18 17 0 8 8 3 21 -13z m-46 -21 c-3
-3 -11 0 -18 7 -9 10 -8 11 6 5 10 -3 15 -9 12 -12z m-139 -1 c11 9 14 8 14
-5 0 -10 -4 -15 -9 -11 -6 3 -14 -2 -19 -11 -8 -14 -9 -11 -9 12 0 16 2 23 4
16 4 -10 8 -10 19 -1z m49 -22 c-5 -14 -2 -25 6 -30 11 -7 11 -9 1 -9 -7 0
-15 7 -18 15 -4 8 -11 12 -18 8 -6 -3 -2 3 9 15 26 27 28 27 20 1z m150 3 c-3
-3 -11 0 -18 7 -9 10 -8 11 6 5 10 -3 15 -9 12 -12z m-169 -56 c1 -9 -5 -12
-17 -9 -14 4 -15 8 -6 18 13 14 20 12 23 -9z m-88 -17 c-10 -7 -9 -9 5 -9 9 0
17 5 17 10 0 6 4 10 9 10 10 0 9 -19 -2 -37 -4 -6 -4 -18 -1 -26 3 -8 1 -17
-3 -20 -5 -3 -10 4 -10 15 -1 11 -8 28 -16 37 -27 31 -28 39 -6 34 16 -4 17
-8 7 -14z m292 -24 c-14 -17 -30 -20 -30 -4 0 5 4 8 9 4 5 -3 12 -1 16 5 3 5
9 10 12 10 3 0 0 -7 -7 -15z m-302 -20 c-3 -3 -9 2 -12 12 -6 14 -5 15 5 6 7
-7 10 -15 7 -18z m97 -5 c-3 -5 -12 -10 -18 -10 -7 0 -6 4 3 10 19 12 23 12
15 0z m-85 -45 c0 -5 -5 -3 -10 5 -5 8 -10 20 -10 25 0 6 5 3 10 -5 5 -8 10
-19 10 -25z m290 25 c0 -5 -2 -10 -4 -10 -3 0 -8 5 -11 10 -3 6 -1 10 4 10 6
0 11 -4 11 -10z m-210 -24 c0 -3 -4 -8 -10 -11 -5 -3 -10 -1 -10 4 0 6 5 11
10 11 6 0 10 -2 10 -4z m-100 -30 c13 -17 13 -18 1 -11 -11 6 -13 4 -8 -8 4
-10 2 -17 -5 -17 -7 0 -6 -5 2 -15 7 -9 8 -15 2 -15 -5 0 -15 13 -20 30 -8 22
-8 29 1 27 7 -1 11 6 9 18 -2 11 -2 18 0 15 2 -3 10 -14 18 -24z m359 1 c8
-10 7 -14 -2 -14 -7 0 -18 6 -25 14 -10 10 -10 13 1 13 8 0 20 -6 26 -13z
m-326 -40 c3 -8 -1 -14 -8 -14 -7 0 -11 6 -8 14 3 7 6 13 8 13 2 0 5 -6 8 -13z
m-138 -27 c-3 -5 1 -10 10 -10 10 0 14 5 9 13 -5 9 -4 9 6 0 19 -18 8 -32 -18
-22 -19 7 -23 29 -6 29 3 0 2 -4 -1 -10z m55 -50 c0 -5 -5 -10 -11 -10 -5 0
-7 5 -4 10 3 6 8 10 11 10 2 0 4 -4 4 -10z m33 -15 c-3 -9 -8 -14 -10 -11 -3
3 -2 9 2 15 9 16 15 13 8 -4z m-73 -27 c0 -6 -6 -5 -15 2 -8 7 -15 14 -15 16
0 2 7 1 15 -2 8 -4 15 -11 15 -16z m25 12 c3 -5 1 -10 -4 -10 -6 0 -11 5 -11
10 0 6 2 10 4 10 3 0 8 -4 11 -10z m-49 -25 c10 -8 14 -15 7 -15 -6 0 -15 5
-18 11 -4 6 -14 8 -22 5 -8 -3 -11 -1 -8 4 8 14 18 13 41 -5z m528 -1 c3 -8 2
-12 -4 -9 -6 3 -10 10 -10 16 0 14 7 11 14 -7z m-474 -21 c0 -20 -3 -24 -9
-14 -7 11 -10 10 -14 -5 -3 -12 -4 -9 -4 8 1 15 5 24 9 22 4 -3 8 0 8 5 0 6 2
11 5 11 3 0 5 -12 5 -27z m-45 -22 c-3 -6 -11 -11 -16 -11 -5 0 -4 6 3 14 14
16 24 13 13 -3z m4 -43 c-11 -21 -15 -22 -25 -6 -5 7 -3 8 6 3 9 -6 12 -4 8 7
-4 8 0 15 7 15 10 0 11 -5 4 -19z m-78 -39 c-9 -22 -10 -22 -10 -3 -1 11 2 24
6 27 12 12 14 0 4 -24z m65 -1 c12 -13 13 -18 4 -12 -8 4 -24 7 -35 5 -16 -3
-17 -1 -6 13 17 20 14 20 37 -6z m8 -43 c-7 -16 -24 -21 -24 -6 0 8 7 13 27
20 1 1 0 -6 -3 -14z m-29 -65 c3 -6 -4 -10 -17 -10 -18 0 -20 2 -8 10 19 12
18 12 25 0z"/>
<path d="M1430 1701 c0 -5 5 -13 10 -16 6 -3 10 -2 10 4 0 5 -4 13 -10 16 -5
3 -10 2 -10 -4z"/>
<path d="M1547 1453 c-4 -3 -7 -11 -7 -17 0 -6 5 -5 12 2 6 6 9 14 7 17 -3 3
-9 2 -12 -2z"/>
<path d="M1565 1360 c4 -6 11 -8 16 -5 14 9 11 15 -7 15 -8 0 -12 -5 -9 -10z"/>
<path d="M646 1112 c-3 -6 -1 -14 5 -17 14 -9 20 -2 10 14 -6 8 -11 9 -15 3z"/>
<path d="M1960 920 c0 -5 -7 -7 -16 -3 -14 5 -14 3 -3 -15 10 -15 16 -18 21
-9 6 9 8 8 8 -2 0 -17 13 -6 16 14 1 7 -4 16 -12 19 -8 3 -14 1 -14 -4z"/>
<path d="M1710 895 c-11 -13 -10 -14 4 -9 9 3 16 10 16 15 0 13 -6 11 -20 -6z"/>
<path d="M935 870 c-3 -5 -1 -10 4 -10 6 0 11 5 11 10 0 6 -2 10 -4 10 -3 0
-8 -4 -11 -10z"/>
<path d="M1980 510 c0 -5 5 -10 10 -10 6 0 10 5 10 10 0 6 -4 10 -10 10 -5 0
-10 -4 -10 -10z"/>
<path d="M275 550 c-3 -5 -1 -10 4 -10 6 0 11 5 11 10 0 6 -2 10 -4 10 -3 0
-8 -4 -11 -10z"/>
<path d="M2229 443 c-13 -15 -12 -15 9 -4 23 12 28 21 13 21 -5 0 -15 -7 -22
-17z"/>
<path d="M2090 361 c0 -5 9 -11 20 -14 24 -6 27 8 4 17 -21 8 -24 8 -24 -3z"/>
</g>
</svg>
